<svg width="52" height="53" viewBox="0 0 52 53" fill="none" xmlns="http://www.w3.org/2000/svg">
<path d="M26 39.7037L12.9859 48L16.4366 32.4444L5 21.9704L20.0845 20.6222L26 6L31.9155 20.6222L47 21.9704L35.5634 32.4444L39.0141 48L26 39.7037Z" fill="white"/>
<path d="M12.0096 47.7834L11.4865 50.1418L13.5235 48.8432L26 40.8896L38.4765 48.8432L40.5135 50.1418L39.9904 47.7834L36.6647 32.7918L47.6754 22.7078L49.3478 21.1762L47.089 20.9743L32.6133 19.6806L26.927 5.62497L26 3.33353L25.073 5.62497L19.3867 19.6806L4.91098 20.9743L2.65224 21.1762L4.32461 22.7078L15.3353 32.7918L12.0096 47.7834Z" stroke="black" stroke-opacity="0.5" stroke-width="2"/>
</svg>
