<svg width="50" height="50" viewBox="0 0 50 50" fill="none" xmlns="http://www.w3.org/2000/svg">
<path d="M23.3654 0.0476181C17.2313 0.472753 11.6026 3.02356 7.30472 7.31992C3.212 11.4162 0.710332 16.6879 0.094923 22.5247C-0.0151503 23.5751 -0.0351636 26.2459 0.064903 27.2012C0.405129 30.5023 1.14562 33.1581 2.52154 35.979C4.21767 39.4551 6.6693 42.456 9.75635 44.8318C15.6152 49.3382 23.1753 51.0088 30.4451 49.4032C34.3077 48.548 37.8751 46.7874 41.0522 44.1666C41.7226 43.6114 43.5188 41.8308 44.0592 41.1806C46.6059 38.1297 48.327 34.7736 49.2526 31.0374C50.2483 27.0412 50.2483 22.9849 49.2576 18.9736C48.297 15.0924 46.4157 11.5012 43.744 8.46528C43.1436 7.77507 41.7376 6.40963 41.0522 5.83945C37.2496 2.67845 32.7767 0.742837 27.9434 0.172657C26.5075 0.00260288 24.7113 -0.047412 23.3654 0.0476181ZM27.1879 3.91885C30.7253 4.29897 34.0275 5.51935 36.9695 7.52999C37.3247 7.77506 37.6249 7.99514 37.6349 8.02014C37.6449 8.05015 36.5892 9.25053 35.2883 10.696C33.9925 12.1414 31.2356 15.2024 29.1693 17.4981C19.793 27.9164 16.6659 31.3975 13.3137 35.1287C11.3374 37.3294 9.65628 39.195 9.58123 39.275L9.44114 39.4151L8.95582 38.8499C6.03888 35.4438 4.31773 31.4276 3.87244 26.9761C3.78738 26.1409 3.78738 23.8602 3.86743 23.0499C4.06256 21.1493 4.45783 19.3987 5.06823 17.7382C7.5799 10.9261 13.3738 5.85946 20.4385 4.29896C21.4992 4.06389 22.4498 3.93885 23.9658 3.82381C24.4761 3.7838 26.4925 3.84382 27.1879 3.91885ZM40.9621 11.0811C43.8941 14.4822 45.5952 18.4034 46.0855 22.9099C46.2006 23.9502 46.2006 26.0509 46.0855 27.0912C45.7053 30.6023 44.5945 33.7333 42.7183 36.5992C41.2123 38.8949 39.1609 40.9806 36.8744 42.5311C29.7797 47.3476 20.4435 47.4126 13.3337 42.6911C12.6183 42.216 12.3331 42.0059 12.3331 41.9509C12.3331 41.9259 12.5432 41.6758 12.7984 41.3957C13.0585 41.1106 15.29 38.6298 17.7617 35.879C20.2383 33.1281 23.5555 29.4369 25.1416 27.6764C26.7276 25.9158 30.25 21.9996 32.9718 18.9736C39.1109 12.1464 40.5118 10.596 40.5268 10.596C40.5368 10.596 40.732 10.816 40.9621 11.0811Z" fill="black"/>
<path d="M26.9058 10.1969C26.6585 10.3152 26.2606 10.6379 26.024 10.9067C25.2282 11.8209 24.5829 14.4879 24.4431 17.4454L24.3786 18.9402L24.0775 17.6067C23.7656 16.1979 23.0343 13.8749 22.6901 13.2082C22.4213 12.6812 21.9804 12.2833 21.3458 12.0037C20.8727 11.7886 20.6253 11.7563 19.195 11.7563C17.6248 11.7456 17.5603 11.7563 16.9796 12.0574C16.2375 12.4231 15.9472 12.7995 15.8074 13.5415C15.603 14.5955 15.9472 15.5419 17.2377 17.4992C17.9045 18.5101 18.5067 19.2414 19.6144 20.3921L20.4855 21.2954L19.8402 20.8653C18.098 19.7146 15.6568 18.4455 14.818 18.2627C14.1834 18.1122 13.3231 18.2735 12.7961 18.6176C12.5918 18.7574 12.0218 19.2414 11.5379 19.693C10.57 20.6072 10 21.5428 10 22.2203C10.0108 23.2205 11.0002 24.3174 12.2369 24.6938C14.1834 25.2853 15.9472 25.5542 17.9797 25.5757C18.5927 25.5864 18.9906 25.6079 18.8723 25.6402C15.9364 26.2747 13.5489 27.0275 12.8822 27.533C12.6026 27.7481 12.3014 28.1245 12.1079 28.5009C11.8175 29.0708 11.7852 29.2322 11.7422 30.5549C11.6992 31.7487 11.7315 32.1036 11.8928 32.6198C12.3875 34.2007 13.8823 34.6846 15.6675 33.8565C17.1624 33.1467 18.711 32.0175 20.3564 30.4151L21.3028 29.4903L20.55 30.684C19.5391 32.2864 18.4099 34.5448 18.2593 35.2546C18.0335 36.3623 18.4744 37.2549 19.9908 38.7605C21.4641 40.2231 22.7547 40.3629 23.8839 39.2014C24.3678 38.696 24.5829 38.2551 24.9163 37.0721C25.2927 35.717 25.4863 34.405 25.5616 32.6628L25.6261 31.1034L25.9164 32.3402C26.0778 33.0177 26.4327 34.2867 26.7123 35.1578C27.164 36.5451 27.2822 36.814 27.7017 37.2764C28.3792 38.0292 28.7986 38.169 30.5516 38.2335C32.2508 38.2873 32.9928 38.1368 33.6058 37.599C34.1328 37.1258 34.3801 36.287 34.2188 35.4374C34.1005 34.7814 33.5843 33.6092 33.2617 33.2543C33.1541 33.1252 33.0573 32.9639 33.0358 32.8886C32.9713 32.609 31.5087 30.7593 30.5946 29.8021C30.0891 29.2752 29.6805 28.8342 29.6805 28.8127C29.6805 28.7912 29.8848 28.9203 30.1429 29.0923C31.0248 29.6946 32.2185 30.3829 33.552 31.0496C35.6276 32.0928 36.488 32.0605 37.8538 30.8776C39.8648 29.1569 40.4241 27.8879 39.6928 26.7371C39.5315 26.4683 39.1981 26.0919 38.9722 25.9091C38.499 25.5219 37.1225 25.038 35.7459 24.7691C34.5092 24.5433 32.1217 24.3497 31.2936 24.4142C30.7344 24.468 30.885 24.4142 32.0464 24.1561C32.8423 23.984 34.2511 23.5969 35.1652 23.285C36.6278 22.801 36.8859 22.6828 37.3376 22.2633C38.1011 21.5428 38.2302 21.1019 38.2302 19.2198C38.2302 17.3809 38.1119 16.8539 37.5527 16.3377C37.0472 15.8537 36.7568 15.7569 35.875 15.7677C35.2512 15.7677 34.9931 15.8322 34.3479 16.1441C32.7777 16.8862 30.3472 18.7144 29.1428 20.0479L28.5835 20.6717L29.3901 19.4349C29.831 18.7574 30.5408 17.4992 30.9817 16.6388C31.7561 15.1117 31.7668 15.0579 31.7668 14.2728C31.7776 13.6383 31.7238 13.3695 31.5195 12.9931C31.1861 12.3693 29.3148 10.4981 28.7663 10.24C28.0996 9.93884 27.4543 9.91733 26.9058 10.1969ZM27.0457 20.8222C28.7986 21.6826 29.8418 23.5754 29.6267 25.5111C29.5729 26.0166 29.4331 26.4683 29.132 27.0598C28.4975 28.3288 27.5081 29.1354 26.1853 29.4795C22.8515 30.3506 19.7757 27.4362 20.4747 24.0808C20.6683 23.1237 21.1092 22.3386 21.7975 21.6826C22.873 20.6609 23.5828 20.3921 25.1636 20.4351C26.2176 20.4566 26.3574 20.4889 27.0457 20.8222Z" fill="black"/>
<path d="M24.1631 21.1555C23.0016 21.4566 21.9907 22.2955 21.4638 23.4139C21.1734 24.0269 21.1304 24.2313 21.1304 25.0271C21.1304 25.8229 21.1734 26.0272 21.4638 26.6402C22.6682 29.189 25.8838 29.7805 27.8518 27.8232C29.7984 25.8659 29.2176 22.6289 26.7011 21.4566C25.9698 21.1125 24.8621 20.9834 24.1631 21.1555Z" fill="black"/>
</svg>
