<svg width="50" height="50" viewBox="0 0 50 50" fill="none" xmlns="http://www.w3.org/2000/svg">
<path d="M19.2268 10.1156C17.7505 10.5785 16.5382 12.2365 16.0581 14.4571C15.8001 15.6464 15.8241 17.41 16.1181 18.6462C16.6162 20.7613 17.9665 22.4428 19.4188 22.7709C21.2312 23.1811 22.9775 21.8686 23.8477 19.4372C24.1958 18.4587 24.3098 17.7264 24.3098 16.4198C24.3098 15.4179 24.2858 15.1484 24.1657 14.5743C23.7637 12.6701 22.8635 11.1643 21.6993 10.4437C21.0031 10.0101 19.9889 9.88124 19.2268 10.1156Z" fill="black"/>
<path d="M28.9549 10.1448C27.4606 10.6604 26.2963 12.3126 25.8223 14.6034C25.6302 15.5526 25.6302 17.3044 25.8343 18.2653C26.3324 20.6323 27.6046 22.349 29.1649 22.7532C29.525 22.847 30.2031 22.8587 30.5812 22.7708C31.5534 22.554 32.6276 21.5932 33.2457 20.3862C33.6358 19.6304 33.9419 18.5992 34.0679 17.6032C34.1699 16.7654 34.1099 15.2362 33.9419 14.457C33.4618 12.2364 32.2375 10.5608 30.7732 10.1213C30.2211 9.95142 29.477 9.96314 28.9549 10.1448Z" fill="black"/>
<path d="M11.8334 19.4721C10.9933 19.724 10.3391 20.5267 10.0931 21.5872C9.97305 22.1203 9.96705 23.1867 10.0871 23.8429C10.3451 25.2959 11.1493 26.8251 12.1875 27.8504C14.864 30.4986 17.8526 29.2624 17.6606 25.5888C17.4926 22.4719 14.9661 19.3666 12.6076 19.3842C12.3435 19.3842 11.9955 19.4252 11.8334 19.4721Z" fill="black"/>
<path d="M36.4806 19.5191C34.3502 20.1929 32.4838 22.9231 32.3398 25.589C32.2318 27.5986 33.0299 28.9403 34.5122 29.2332C35.1844 29.3621 36.0545 29.1395 36.8647 28.6239C38.329 27.6923 39.5772 25.7472 39.9133 23.843C40.0333 23.1868 40.0273 22.1205 39.9073 21.5873C39.7273 20.7905 39.2412 20.0405 38.6891 19.7066C38.1009 19.3492 37.2548 19.2789 36.4806 19.5191Z" fill="black"/>
<path d="M23.9908 25.5948C23.3366 25.7295 22.6705 25.9756 22.1124 26.2978C20.8881 26.9951 18.8777 29.4207 16.7173 32.8247C15.6971 34.4242 15.241 35.2796 15.067 35.9358C14.9529 36.3635 14.9529 37.2951 15.067 37.7111C15.289 38.5372 15.8351 39.1875 16.6033 39.5566C17.3714 39.9199 17.6715 39.9726 19.0278 39.9726C20.168 39.9668 20.252 39.9609 20.7081 39.8086C20.9721 39.7207 21.4162 39.5332 21.6983 39.3926C23.0846 38.6895 23.1926 38.6485 23.7747 38.5255C24.6329 38.3438 26.4452 38.3438 27.3034 38.5255C27.8855 38.6485 27.9936 38.6895 29.3798 39.3926C30.304 39.8613 30.7001 39.9551 31.8823 39.9902C32.8065 40.0136 32.9806 40.0019 33.4907 39.8847C33.8027 39.8144 34.2528 39.668 34.4809 39.5566C35.255 39.1758 35.8611 38.4141 36.0352 37.6115C36.1312 37.1721 36.1192 36.3401 36.0112 35.93C35.8131 35.1624 34.7269 33.2817 33.2506 31.1842C31.4142 28.5594 29.7699 26.6962 28.8697 26.2158C28.3416 25.9346 27.6035 25.6768 26.9794 25.5655C26.2592 25.4307 24.7169 25.4483 23.9908 25.5948Z" fill="black"/>
<path d="M23.3654 0.0476181C17.2313 0.472753 11.6026 3.02356 7.30472 7.31992C3.212 11.4162 0.710332 16.6879 0.094923 22.5247C-0.0151503 23.5751 -0.0351636 26.2459 0.064903 27.2012C0.405129 30.5023 1.14562 33.1581 2.52154 35.979C4.21767 39.4551 6.6693 42.456 9.75635 44.8318C15.6152 49.3382 23.1753 51.0088 30.4451 49.4032C34.3077 48.548 37.8751 46.7874 41.0522 44.1666C41.7226 43.6114 43.5188 41.8308 44.0592 41.1806C46.6059 38.1297 48.327 34.7736 49.2526 31.0374C50.2483 27.0412 50.2483 22.9849 49.2576 18.9736C48.297 15.0924 46.4157 11.5012 43.744 8.46528C43.1436 7.77507 41.7376 6.40963 41.0522 5.83945C37.2496 2.67845 32.7767 0.742837 27.9434 0.172657C26.5075 0.00260288 24.7113 -0.047412 23.3654 0.0476181ZM27.1879 3.91885C30.7253 4.29897 34.0275 5.51935 36.9695 7.52999C37.3247 7.77506 37.6249 7.99514 37.6349 8.02014C37.6449 8.05015 36.5892 9.25053 35.2883 10.696C33.9925 12.1414 31.2356 15.2024 29.1693 17.4981C19.793 27.9164 16.6659 31.3975 13.3137 35.1287C11.3374 37.3294 9.65628 39.195 9.58123 39.275L9.44114 39.4151L8.95582 38.8499C6.03888 35.4438 4.31773 31.4276 3.87244 26.9761C3.78738 26.1409 3.78738 23.8602 3.86743 23.0499C4.06256 21.1493 4.45783 19.3987 5.06823 17.7382C7.5799 10.9261 13.3738 5.85946 20.4385 4.29896C21.4992 4.06389 22.4498 3.93885 23.9658 3.82381C24.4761 3.7838 26.4925 3.84382 27.1879 3.91885ZM40.9621 11.0811C43.8941 14.4822 45.5952 18.4034 46.0855 22.9099C46.2006 23.9502 46.2006 26.0509 46.0855 27.0912C45.7053 30.6023 44.5945 33.7333 42.7183 36.5992C41.2123 38.8949 39.1609 40.9806 36.8744 42.5311C29.7797 47.3476 20.4435 47.4126 13.3337 42.6911C12.6183 42.216 12.3331 42.0059 12.3331 41.9509C12.3331 41.9259 12.5432 41.6758 12.7984 41.3957C13.0585 41.1106 15.29 38.6298 17.7617 35.879C20.2383 33.1281 23.5555 29.4369 25.1416 27.6764C26.7276 25.9158 30.25 21.9996 32.9718 18.9736C39.1109 12.1464 40.5118 10.596 40.5268 10.596C40.5368 10.596 40.732 10.816 40.9621 11.0811Z" fill="black"/>
</svg>
