<?xml version="1.0" standalone="no"?>
<!DOCTYPE svg PUBLIC "-//W3C//DTD SVG 20010904//EN"
 "http://www.w3.org/TR/2001/REC-SVG-20010904/DTD/svg10.dtd">
<svg version="1.0" xmlns="http://www.w3.org/2000/svg"
 width="440.000000pt" height="568.000000pt" viewBox="0 0 440.000000 568.000000"
 preserveAspectRatio="xMidYMid meet">
<metadata>
Created by potrace 1.15, written by Peter Selinger 2001-2017
</metadata>
<g transform="translate(0.000000,568.000000) scale(0.100000,-0.100000)"
fill="#000000" stroke="none">
<path d="M1478 5459 c-292 -38 -517 -282 -535 -580 -17 -277 157 -535 422
-625 340 -114 707 83 800 431 19 73 22 223 5 296 -40 175 -172 341 -331 417
-124 59 -235 78 -361 61z"/>
<path d="M1520 4105 c-142 -32 -277 -124 -351 -238 -62 -95 -84 -174 -83 -297
l0 -105 161 -465 c88 -256 168 -492 178 -525 50 -175 163 -289 345 -351 51
-18 87 -19 480 -16 553 3 863 -12 918 -47 23 -14 33 -239 41 -921 7 -657 8
-666 30 -722 28 -73 94 -141 169 -176 48 -22 71 -27 147 -27 82 0 96 3 157 33
79 38 128 91 160 171 l23 56 3 915 c2 605 -1 942 -8 995 -24 182 -135 327
-298 389 -55 20 -75 21 -597 26 l-539 5 -17 55 c-93 304 -313 958 -334 994
-92 157 -248 251 -433 261 -57 3 -110 0 -152 -10z"/>
<path d="M660 3374 c-89 -39 -145 -112 -156 -206 -6 -53 -4 -62 51 -179 140
-302 195 -459 275 -784 32 -132 71 -276 85 -320 86 -264 196 -383 401 -435
134 -35 300 -41 925 -38 l596 3 49 30 c156 97 156 343 0 440 l-49 30 -561 6
c-597 7 -641 11 -742 59 -24 12 -66 46 -93 76 -61 66 -96 152 -156 384 -64
246 -119 395 -234 635 -32 66 -64 137 -71 159 -16 50 -75 114 -125 137 -49 23
-146 24 -195 3z"/>
</g>
</svg>
