<svg width="50" height="50" viewBox="0 0 50 50" fill="none" xmlns="http://www.w3.org/2000/svg">
<path d="M23.3654 0.047615C17.2313 0.47275 11.6026 3.02356 7.30472 7.31992C3.212 11.4162 0.710332 16.6879 0.094923 22.5247C-0.0151503 23.5751 -0.0351636 26.2459 0.064903 27.2012C0.405129 30.5023 1.14562 33.1581 2.52154 35.979C4.21767 39.4551 6.6693 42.456 9.75635 44.8318C15.6152 49.3382 23.1753 51.0088 30.4451 49.4032C34.3077 48.548 37.8751 46.7874 41.0522 44.1666C41.7226 43.6114 43.5188 41.8308 44.0592 41.1806C46.6059 38.1297 48.327 34.7736 49.2526 31.0374C50.2483 27.0412 50.2483 22.9849 49.2576 18.9736C48.297 15.0924 46.4157 11.5012 43.744 8.46528C43.1436 7.77506 41.7376 6.40963 41.0522 5.83945C37.2496 2.67845 32.7767 0.742835 27.9434 0.172655C26.5075 0.00260076 24.7113 -0.0474151 23.3654 0.047615ZM27.1879 3.91884C30.1049 4.23394 32.9368 5.14423 35.4735 6.58468C36.1239 6.9548 37.9201 8.15518 38.4004 8.5403C38.7757 8.8404 40.4868 10.5409 40.9471 11.0711C43.874 14.4372 45.5952 18.3984 46.0855 22.9099C46.2006 23.9502 46.2006 26.0508 46.0855 27.0912C45.6102 31.4626 43.9791 35.3138 41.2073 38.6298C40.6969 39.24 39.5912 40.3654 38.9508 40.9256C32.5015 46.5874 23.2703 47.8027 15.6102 43.9965C14.2794 43.3363 13.0786 42.5861 12.188 41.8609C11.9328 41.6508 11.5826 41.3807 11.4125 41.2557C10.9672 40.9306 9.40612 39.3801 8.81572 38.6798C5.97884 35.3138 4.31273 31.3625 3.87244 26.9761C3.78738 26.1409 3.78738 23.8602 3.86743 23.0499C4.06256 21.1493 4.45783 19.3987 5.06823 17.7382C7.5799 10.9261 13.3738 5.85946 20.4385 4.29896C21.4992 4.06389 22.4498 3.93885 23.9658 3.82381C24.4761 3.7838 26.4925 3.84382 27.1879 3.91884Z" fill="black"/>
<path d="M18.5371 15.4625C18.5371 15.7726 18.4471 16.4729 18.357 16.848C17.8717 18.8786 15.5401 20.2841 12.0028 20.6742C11.0521 20.7792 10.5668 20.9693 10.1215 21.4144C9.85635 21.6795 9.66122 22.0346 9.55615 22.4297C9.43107 22.8999 9.46109 23.8902 9.61119 24.3654C9.64121 24.4604 9.72126 24.4604 9.99644 24.3554L10.1165 24.3103L10.0465 23.9652C9.9314 23.4351 9.97643 22.6498 10.1415 22.2947C10.3167 21.9146 10.5818 21.6345 10.9371 21.4544C11.2723 21.2844 11.5325 21.2294 12.283 21.1493C15.0148 20.8592 17.2963 19.7489 18.307 18.2284C18.7122 17.6182 18.9624 16.7529 19.0224 15.7376L19.0525 15.2475H18.7973H18.5371V15.4625Z" fill="black"/>
<path d="M20.2883 16.5628C20.2883 16.8779 20.1933 17.5782 20.1032 17.9483C19.6079 19.9739 17.3013 21.3694 13.769 21.7745C12.6883 21.8995 12.0829 22.1746 11.6826 22.7398C11.3174 23.245 11.2573 23.47 11.2573 24.3503C11.2573 24.8405 11.2823 25.2056 11.3224 25.3406C11.3924 25.5757 11.4174 25.5807 11.7477 25.4557L11.8677 25.4106L11.7977 25.0655C11.7527 24.8505 11.7326 24.5304 11.7426 24.2003C11.7577 23.7651 11.7827 23.6251 11.8927 23.395C12.0729 23.0049 12.3531 22.7098 12.7033 22.5447C13.0435 22.3847 13.2937 22.3247 14.0342 22.2496C17.0462 21.9295 19.4778 20.6191 20.3133 18.8736C20.5785 18.3234 20.7887 17.3181 20.7887 16.6129V16.3478H20.5385H20.2883V16.5628Z" fill="black"/>
<path d="M12.7684 26.1859C12.7484 26.2009 12.7334 27.3162 12.7334 28.6616V31.1024H27.4682H42.203V28.6266V26.1509H27.5032C19.4178 26.1509 12.7834 26.1659 12.7684 26.1859Z" fill="black"/>
<path d="M11.1423 28.6617L11.1573 31.1275L11.6227 31.1425L12.083 31.1575V28.6767V26.2009H11.6076H11.1323L11.1423 28.6617Z" fill="black"/>
<path d="M9.53125 28.7316V31.2074L9.98155 31.1974L10.4318 31.1874V28.7216V26.2508H9.98155H9.53125V28.7316Z" fill="black"/>
</svg>
