<svg width="50" height="50" viewBox="0 0 50 50" fill="none" xmlns="http://www.w3.org/2000/svg">
<path d="M23.3654 0.0476181C17.2313 0.472753 11.6026 3.02356 7.30472 7.31992C3.212 11.4162 0.710332 16.6879 0.094923 22.5247C-0.0151503 23.5751 -0.0351636 26.2459 0.064903 27.2012C0.405129 30.5023 1.14562 33.1581 2.52154 35.979C4.21767 39.4551 6.6693 42.456 9.75635 44.8318C15.6152 49.3382 23.1753 51.0088 30.4451 49.4032C34.3077 48.548 37.8751 46.7874 41.0522 44.1666C41.7226 43.6114 43.5188 41.8308 44.0592 41.1806C46.6059 38.1297 48.327 34.7736 49.2526 31.0374C50.2483 27.0412 50.2483 22.9849 49.2576 18.9736C48.297 15.0924 46.4157 11.5012 43.744 8.46528C43.1436 7.77507 41.7376 6.40963 41.0522 5.83945C37.2496 2.67845 32.7767 0.742837 27.9434 0.172657C26.5075 0.00260288 24.7113 -0.047412 23.3654 0.0476181ZM27.1879 3.91885C30.7253 4.29897 34.0275 5.51935 36.9695 7.52999C37.3247 7.77506 37.6249 7.99514 37.6349 8.02014C37.6449 8.05015 36.5892 9.25053 35.2883 10.696C33.9925 12.1414 31.2356 15.2024 29.1693 17.4981C19.793 27.9164 16.6659 31.3975 13.3137 35.1287C11.3374 37.3294 9.65628 39.195 9.58123 39.275L9.44114 39.4151L8.95582 38.8499C6.03888 35.4438 4.31773 31.4276 3.87244 26.9761C3.78738 26.1409 3.78738 23.8602 3.86743 23.0499C4.06256 21.1493 4.45783 19.3987 5.06823 17.7382C7.5799 10.9261 13.3738 5.85946 20.4385 4.29896C21.4992 4.06389 22.4498 3.93885 23.9658 3.82381C24.4761 3.7838 26.4925 3.84382 27.1879 3.91885ZM40.9621 11.0811C43.8941 14.4822 45.5952 18.4034 46.0855 22.9099C46.2006 23.9502 46.2006 26.0509 46.0855 27.0912C45.7053 30.6023 44.5945 33.7333 42.7183 36.5992C41.2123 38.8949 39.1609 40.9806 36.8744 42.5311C29.7797 47.3476 20.4435 47.4126 13.3337 42.6911C12.6183 42.216 12.3331 42.0059 12.3331 41.9509C12.3331 41.9259 12.5432 41.6758 12.7984 41.3957C13.0585 41.1106 15.29 38.6298 17.7617 35.879C20.2383 33.1281 23.5555 29.4369 25.1416 27.6764C26.7276 25.9158 30.25 21.9996 32.9718 18.9736C39.1109 12.1464 40.5118 10.596 40.5268 10.596C40.5368 10.596 40.732 10.816 40.9621 11.0811Z" fill="black"/>
<path d="M18.5371 15.4624C18.5371 15.7725 18.4471 16.4727 18.357 16.8479C17.8717 18.8785 15.5401 20.2839 12.0028 20.6741C11.0521 20.7791 10.5668 20.9692 10.1215 21.4143C9.85635 21.6794 9.66122 22.0345 9.55615 22.4296C9.43107 22.8998 9.46109 23.8901 9.61119 24.3652C9.64121 24.4603 9.72126 24.4603 9.99644 24.3552L10.1165 24.3102L10.0465 23.9651C9.9314 23.4349 9.97643 22.6497 10.1415 22.2946C10.3167 21.9145 10.5818 21.6344 10.9371 21.4543C11.2723 21.2843 11.5325 21.2292 12.283 21.1492C15.0148 20.8591 17.2963 19.7488 18.307 18.2283C18.7122 17.6181 18.9624 16.7528 19.0224 15.7375L19.0525 15.2473H18.7973H18.5371V15.4624Z" fill="black"/>
<path d="M20.2883 16.5628C20.2883 16.8779 20.1933 17.5782 20.1032 17.9483C19.6079 19.9739 17.3013 21.3694 13.769 21.7745C12.6883 21.8995 12.0829 22.1746 11.6826 22.7398C11.3174 23.245 11.2573 23.47 11.2573 24.3503C11.2573 24.8405 11.2823 25.2056 11.3224 25.3406C11.3924 25.5757 11.4174 25.5807 11.7476 25.4557L11.8677 25.4106L11.7977 25.0655C11.7527 24.8505 11.7326 24.5304 11.7426 24.2003C11.7577 23.7651 11.7827 23.6251 11.8927 23.395C12.0729 23.0049 12.3531 22.7098 12.7033 22.5447C13.0435 22.3847 13.2937 22.3247 14.0342 22.2496C17.0462 21.9295 19.4778 20.6191 20.3133 18.8736C20.5785 18.3234 20.7887 17.3181 20.7887 16.6129V16.3478H20.5385H20.2883V16.5628Z" fill="black"/>
<path d="M12.7684 26.1859C12.7484 26.2009 12.7334 27.3162 12.7334 28.6616V31.1024H14.5046H16.2758L18.4672 28.7117C19.678 27.4012 20.6937 26.2859 20.7337 26.2359C20.7988 26.1559 20.5936 26.1509 16.8011 26.1509C14.5996 26.1509 12.7834 26.1659 12.7684 26.1859Z" fill="black"/>
<path d="M11.1423 28.6617L11.1573 31.1275L11.6227 31.1425L12.083 31.1575V28.6767V26.2009H11.6076H11.1323L11.1423 28.6617Z" fill="black"/>
<path d="M9.53125 28.7316V31.2074L9.98155 31.1974L10.4318 31.1874V28.7216V26.2508H9.98155H9.53125V28.7316Z" fill="black"/>
<path d="M24.8815 28.5616C23.6607 29.892 22.645 31.0074 22.62 31.0374C22.5899 31.0874 24.5613 31.1024 32.3915 31.1024H42.203V28.6266V26.1509H34.653H27.1029L24.8815 28.5616Z" fill="black"/>
</svg>
